{
    "asset" : {
        "generator" : "Khronos glTF Blender I/O v1.5.17",
        "version" : "2.0"
    },
    "scene" : 0,
    "scenes" : [
        {
            "name" : "Scene",
            "nodes" : [
                0,
                1,
                2,
                3,
                4,
                5
            ]
        }
    ],
    "nodes" : [
        {
            "name" : "Light",
            "rotation" : [
                0.16907575726509094,
                0.7558803558349609,
                -0.27217137813568115,
                0.570947527885437
            ],
            "translation" : [
                4.076245307922363,
                5.903861999511719,
                -1.0054539442062378
            ]
        },
        {
            "name" : "Camera",
            "rotation" : [
                0.483536034822464,
                0.33687159419059753,
                -0.20870360732078552,
                0.7804827094078064
            ],
            "translation" : [
                7.358891487121582,
                4.958309173583984,
                6.925790786743164
            ]
        },
        {
            "name" : "Light.001",
            "rotation" : [
                0.16907575726509094,
                0.7558804154396057,
                -0.27217137813568115,
                0.5709474086761475
            ],
            "translation" : [
                4.076245307922363,
                5.903861999511719,
                -1.0054539442062378
            ]
        },
        {
            "name" : "Camera.001",
            "rotation" : [
                0.4835360646247864,
                0.33687159419059753,
                -0.20870354771614075,
                0.7804827094078064
            ],
            "translation" : [
                7.358891487121582,
                4.958309173583984,
                6.925790786743164
            ]
        },
        {
            "mesh" : 0,
            "name" : "LOW2",
            "rotation" : [
                -1,
                0,
                0,
                1.9470718370939721e-07
            ],
            "scale" : [
                0.003269365755841136,
                0.0032693662215024233,
                0.0032693662215024233
            ],
            "translation" : [
                -0.2880905270576477,
                0.3327942192554474,
                -0.45448780059814453
            ]
        },
        {
            "mesh" : 1,
            "name" : "LOW1",
            "rotation" : [
                0.7071066498756409,
                0,
                0,
                0.70710688829422
            ],
            "scale" : [
                0.009999996982514858,
                0.010000000707805157,
                0.009999999776482582
            ],
            "translation" : [
                0.031886786222457886,
                0.4071338474750519,
                -0.4404789209365845
            ]
        }
    ],
    "materials" : [
        {
            "doubleSided" : true,
            "name" : "M_ChestBottom",
            "pbrMetallicRoughness" : {
                "baseColorTexture" : {
                    "index" : 0
                },
                "metallicRoughnessTexture" : {
                    "index" : 1
                },
                "roughnessFactor" : 0.5
            }
        },
        {
            "doubleSided" : true,
            "name" : "M_ChestTop",
            "pbrMetallicRoughness" : {
                "baseColorTexture" : {
                    "index" : 2
                },
                "metallicRoughnessTexture" : {
                    "index" : 3
                },
                "roughnessFactor" : 0.5
            }
        }
    ],
    "meshes" : [
        {
            "name" : "Retopo_Mesh_Plane.001",
            "primitives" : [
                {
                    "attributes" : {
                        "POSITION" : 0,
                        "NORMAL" : 1,
                        "TEXCOORD_0" : 2
                    },
                    "indices" : 3,
                    "material" : 0
                }
            ]
        },
        {
            "name" : "Plane.001",
            "primitives" : [
                {
                    "attributes" : {
                        "POSITION" : 4,
                        "NORMAL" : 5,
                        "TEXCOORD_0" : 6
                    },
                    "indices" : 7,
                    "material" : 1
                }
            ]
        }
    ],
    "textures" : [
        {
            "sampler" : 0,
            "source" : 0
        },
        {
            "sampler" : 0,
            "source" : 1
        },
        {
            "sampler" : 0,
            "source" : 2
        },
        {
            "sampler" : 0,
            "source" : 3
        }
    ],
    "images" : [
        {
            "bufferView" : 4,
            "mimeType" : "image/png",
            "name" : "chest2_base"
        },
        {
            "bufferView" : 5,
            "mimeType" : "image/png",
            "name" : "chest2_metallic"
        },
        {
            "bufferView" : 10,
            "mimeType" : "image/png",
            "name" : "chest1_base"
        },
        {
            "bufferView" : 11,
            "mimeType" : "image/png",
            "name" : "chest1_metallic"
        }
    ],
    "accessors" : [
        {
            "bufferView" : 0,
            "componentType" : 5126,
            "count" : 2661,
            "max" : [
                103.17599487304688,
                100.96360778808594,
                158.5359344482422
            ],
            "min" : [
                -106.75177764892578,
                -29.52826690673828,
                -158.5359344482422
            ],
            "type" : "VEC3"
        },
        {
            "bufferView" : 1,
            "componentType" : 5126,
            "count" : 2661,
            "type" : "VEC3"
        },
        {
            "bufferView" : 2,
            "componentType" : 5126,
            "count" : 2661,
            "type" : "VEC2"
        },
        {
            "bufferView" : 3,
            "componentType" : 5123,
            "count" : 10278,
            "type" : "SCALAR"
        },
        {
            "bufferView" : 6,
            "componentType" : 5126,
            "count" : 1444,
            "max" : [
                0.04978477954864502,
                45.786075592041016,
                0.11753365397453308
            ],
            "min" : [
                -63.960792541503906,
                -48.66436004638672,
                -24.884227752685547
            ],
            "type" : "VEC3"
        },
        {
            "bufferView" : 7,
            "componentType" : 5126,
            "count" : 1444,
            "type" : "VEC3"
        },
        {
            "bufferView" : 8,
            "componentType" : 5126,
            "count" : 1444,
            "type" : "VEC2"
        },
        {
            "bufferView" : 9,
            "componentType" : 5123,
            "count" : 5124,
            "type" : "SCALAR"
        }
    ],
    "bufferViews" : [
        {
            "buffer" : 0,
            "byteLength" : 31932,
            "byteOffset" : 0
        },
        {
            "buffer" : 0,
            "byteLength" : 31932,
            "byteOffset" : 31932
        },
        {
            "buffer" : 0,
            "byteLength" : 21288,
            "byteOffset" : 63864
        },
        {
            "buffer" : 0,
            "byteLength" : 20556,
            "byteOffset" : 85152
        },
        {
            "buffer" : 0,
            "byteLength" : 1408838,
            "byteOffset" : 105708
        },
        {
            "buffer" : 0,
            "byteLength" : 15799,
            "byteOffset" : 1514548
        },
        {
            "buffer" : 0,
            "byteLength" : 17328,
            "byteOffset" : 1530348
        },
        {
            "buffer" : 0,
            "byteLength" : 17328,
            "byteOffset" : 1547676
        },
        {
            "buffer" : 0,
            "byteLength" : 11552,
            "byteOffset" : 1565004
        },
        {
            "buffer" : 0,
            "byteLength" : 10248,
            "byteOffset" : 1576556
        },
        {
            "buffer" : 0,
            "byteLength" : 1105526,
            "byteOffset" : 1586804
        },
        {
            "buffer" : 0,
            "byteLength" : 15799,
            "byteOffset" : 2692332
        }
    ],
    "samplers" : [
        {
            "magFilter" : 9729,
            "minFilter" : 9987
        }
    ],
    "buffers" : [
        {
            "byteLength" : 2708132,
            "uri" : "data:application/octet-stream;base64,"
        }
    ]
}
